<?xml version="1.0" standalone="no"?>
<!DOCTYPE svg PUBLIC "-//W3C//DTD SVG 20010904//EN"
 "http://www.w3.org/TR/2001/REC-SVG-20010904/DTD/svg10.dtd">
<svg version="1.0" xmlns="http://www.w3.org/2000/svg"
 width="505.000000pt" height="505.000000pt" viewBox="0 0 505.000000 505.000000"
 preserveAspectRatio="xMidYMid meet">
<metadata>
Created by potrace 1.14, written by Peter Selinger 2001-2017
</metadata>
<g transform="translate(0.000000,505.000000) scale(0.100000,-0.100000)"
fill="#000000" stroke="none">
<path d="M2879 4229 c-105 -11 -193 -68 -233 -152 -15 -33 -21 -37 -55 -37
-110 0 -221 -44 -302 -120 -64 -60 -93 -126 -94 -212 -1 -66 -2 -68 -41 -96
-65 -47 -104 -98 -104 -136 0 -52 69 -137 154 -190 59 -36 122 -46 274 -41
l142 5 0 -59 c0 -60 29 -192 53 -237 11 -22 11 -34 -1 -82 -17 -69 -95 -253
-124 -296 -75 -110 -229 -273 -305 -324 -46 -31 -222 -171 -283 -226 -114
-102 -186 -205 -223 -321 -17 -52 -39 -201 -36 -238 4 -56 0 -61 -24 -26 -12
18 -58 58 -100 89 -59 41 -86 68 -108 108 -39 70 -60 70 -52 0 l6 -53 -25 23
c-48 44 -70 172 -42 245 11 29 -14 19 -59 -25 -69 -67 -92 -136 -91 -278 0
-129 23 -233 75 -348 l30 -66 -27 24 c-24 22 -26 23 -20 5 13 -34 19 -81 9
-67 -7 10 -22 8 -68 -8 -32 -11 -60 -20 -62 -20 -2 0 -11 17 -20 37 -13 30
-17 34 -20 18 -15 -81 -26 -86 -46 -18 -12 41 -15 45 -21 25 -10 -30 -20 -28
-48 8 l-24 31 -12 -113 c-9 -85 -17 -115 -29 -123 -9 -5 -33 -24 -52 -42 -30
-26 -36 -37 -36 -74 0 -40 5 -46 75 -112 81 -75 132 -103 250 -135 103 -28
328 -69 485 -87 521 -61 1576 -30 1915 55 41 10 143 30 226 44 191 31 299 71
366 134 41 38 48 50 48 83 0 32 -6 43 -41 72 -22 20 -65 48 -94 64 -52 27 -73
56 -56 77 4 6 20 49 34 96 77 247 104 341 97 333 -4 -4 -37 -80 -74 -168 -69
-164 -90 -195 -132 -195 -21 0 -24 4 -24 41 l0 40 -31 -23 c-78 -58 -72 -58
-65 3 3 30 8 77 11 104 5 49 11 94 21 145 3 17 2 20 -4 10 -5 -8 -19 -66 -32
-128 -13 -61 -27 -112 -31 -112 -4 0 -11 27 -15 60 -4 33 -10 62 -13 65 -4 2
-13 -30 -20 -71 -14 -74 -30 -99 -32 -46 0 15 -9 70 -19 122 l-19 95 1 -147
c1 -81 -1 -151 -5 -154 -3 -4 -37 0 -74 7 -37 7 -71 12 -75 11 -5 -1 -8 3 -8
8 0 23 -70 501 -80 542 -38 168 -64 333 -65 418 0 110 22 582 32 653 6 46 7
48 34 42 15 -4 61 -25 101 -48 41 -23 106 -51 146 -61 62 -16 81 -17 132 -7
160 32 263 123 275 243 0 9 6 23 13 30 18 22 33 107 26 146 -13 69 -30 97
-142 243 -34 43 -148 94 -274 124 -92 22 -118 31 -118 44 0 10 -10 46 -21 81
-16 46 -35 77 -71 114 l-49 51 24 21 c13 11 58 39 99 62 55 30 88 57 126 104
63 77 86 139 86 238 l1 75 -85 0 c-79 -1 -90 -3 -160 -40 -88 -46 -191 -143
-210 -198 -8 -20 -17 -37 -20 -37 -3 0 -16 28 -30 63 -43 109 -156 197 -277
215 -26 4 -78 4 -114 1z m844 -36 c-13 -2 -35 -2 -50 0 -16 2 -5 4 22 4 28 0
40 -2 28 -4z m-172 -43 c-29 -16 -61 -35 -69 -42 -13 -11 -14 -11 -8 0 8 14
106 72 121 72 6 0 -14 -14 -44 -30z m186 -42 c-2 -13 -4 -5 -4 17 -1 22 1 32
4 23 2 -10 2 -28 0 -40z m-90 26 c-3 -3 -12 -4 -19 -1 -8 3 -5 6 6 6 11 1 17
-2 13 -5z m60 -56 c-2 -13 -4 -5 -4 17 -1 22 1 32 4 23 2 -10 2 -28 0 -40z
m-158 28 c-2 -2 -15 -9 -29 -15 -24 -11 -24 -11 -6 3 16 13 49 24 35 12z
m-125 -48 c-22 -24 -47 -54 -57 -68 -17 -25 -17 -25 -6 -1 11 24 87 111 97
111 2 0 -13 -19 -34 -42z m23 -18 c-25 -22 -57 -64 -71 -92 -14 -29 -26 -45
-26 -37 0 34 109 169 137 169 3 0 -15 -18 -40 -40z m280 8 c-3 -8 -6 -5 -6 6
-1 11 2 17 5 13 3 -3 4 -12 1 -19z m-62 -85 c-10 -16 -27 -38 -38 -50 -11 -13
-16 -23 -10 -23 6 0 25 17 43 38 27 32 29 32 10 5 -24 -37 -54 -60 -126 -96
-28 -14 -66 -38 -85 -54 -27 -22 -30 -23 -14 -4 11 13 40 35 65 49 54 30 114
85 141 130 12 17 23 32 26 32 3 0 -3 -12 -12 -27z m-730 -19 c19 -9 40 -25 48
-37 18 -29 28 -90 16 -108 -7 -11 -15 -7 -37 19 -15 18 -46 54 -69 81 -24 26
-43 51 -43 55 0 12 52 6 85 -10z m407 -157 l-9 -82 1 107 c1 73 4 99 9 82 5
-14 5 -61 -1 -107z m22 -13 c3 -8 2 -12 -4 -9 -6 3 -10 10 -10 16 0 14 7 11
14 -7z m40 -49 c-4 -8 -8 -15 -10 -15 -2 0 -4 7 -4 15 0 8 4 15 10 15 5 0 7
-7 4 -15z m-361 -29 c-3 -4 -9 -2 -14 5 -13 22 -11 31 5 17 8 -7 12 -17 9 -22z
m-417 -9 c15 -13 34 -43 44 -68 9 -24 21 -43 26 -42 6 1 16 -13 22 -30 l12
-32 -24 26 c-32 35 -181 114 -231 123 l-40 8 24 19 c36 29 131 27 167 -4z
m829 -27 c21 -22 37 -40 34 -40 -3 0 -23 18 -44 40 -21 22 -37 40 -34 40 3 0
23 -18 44 -40z m-398 -32 c-3 -8 -6 -5 -6 6 -1 11 2 17 5 13 3 -3 4 -12 1 -19z
m-610 6 c-3 -3 -12 -4 -19 -1 -8 3 -5 6 6 6 11 1 17 -2 13 -5z m56 -33 c32
-11 55 -16 51 -10 -3 6 20 -4 53 -22 105 -58 95 -60 -57 -8 -119 40 -226 49
-301 25 -63 -21 -130 -62 -126 -78 1 -7 -4 -12 -12 -13 -16 0 -25 -35 -10 -35
6 0 8 -4 5 -9 -4 -5 -2 -11 2 -13 5 -1 31 -28 57 -58 27 -30 51 -54 54 -53 13
6 41 -9 35 -19 -4 -6 2 -8 17 -4 21 6 22 5 6 -4 -14 -9 -26 -6 -60 13 -57 34
-137 129 -137 164 0 40 141 150 175 136 11 -4 16 -2 12 3 -11 19 174 7 236
-15z m27 9 c8 -5 11 -10 5 -10 -5 0 -17 5 -25 10 -8 5 -10 10 -5 10 6 0 17 -5
25 -10z m990 -39 c0 -9 -40 -67 -40 -58 0 4 7 18 16 32 12 19 13 29 4 47 -11
22 -10 22 4 4 9 -11 16 -22 16 -25z m-453 7 c-3 -8 -6 -5 -6 6 -1 11 2 17 5
13 3 -3 4 -12 1 -19z m-814 -35 c-7 -2 -19 -2 -25 0 -7 3 -2 5 12 5 14 0 19
-2 13 -5z m100 0 c-7 -2 -21 -2 -30 0 -10 3 -4 5 12 5 17 0 24 -2 18 -5z m44
-9 c-3 -3 -12 -4 -19 -1 -8 3 -5 6 6 6 11 1 17 -2 13 -5z m133 -44 c8 -5 11
-10 5 -10 -5 0 -17 5 -25 10 -8 5 -10 10 -5 10 6 0 17 -5 25 -10z m947 -12
c-3 -8 -6 -5 -6 6 -1 11 2 17 5 13 3 -3 4 -12 1 -19z m54 -14 c-5 -16 -10 -21
-10 -12 -1 18 10 51 15 45 2 -1 -1 -16 -5 -33z m16 -16 c-3 -8 -6 -5 -6 6 -1
11 2 17 5 13 3 -3 4 -12 1 -19z m-852 -46 c-3 -3 -11 0 -18 7 -9 10 -8 11 6 5
10 -3 15 -9 12 -12z m912 12 c-3 -3 -12 -4 -19 -1 -8 3 -5 6 6 6 11 1 17 -2
13 -5z m50 -10 c-3 -3 -12 -4 -19 -1 -8 3 -5 6 6 6 11 1 17 -2 13 -5z m-979
-60 c-21 -19 -46 -34 -55 -34 -11 1 -6 6 13 14 17 8 40 25 50 39 11 14 21 23
24 20 3 -2 -12 -20 -32 -39z m1156 -6 c75 -30 134 -116 127 -185 0 -7 -7 -13
-15 -13 -9 0 -19 20 -26 50 -9 39 -22 58 -54 86 -50 44 -81 57 -169 74 -37 7
-69 16 -72 19 -6 10 173 -17 209 -31z m-498 1 c3 -6 -5 -3 -20 6 -14 10 -26
19 -26 22 0 7 39 -17 46 -28z m-176 18 c0 -2 -10 -12 -22 -23 l-23 -19 19 23
c18 21 26 27 26 19z m754 -32 c25 -19 56 -66 56 -85 -1 -8 -7 -1 -14 15 -7 17
-28 43 -45 58 -34 28 -31 38 3 12z m-677 -11 c-3 -3 -12 -4 -19 -1 -8 3 -5 6
6 6 11 1 17 -2 13 -5z m69 -16 c19 -23 19 -23 -1 -7 -11 9 -27 19 -35 22 -13
5 -13 6 1 6 9 1 24 -9 35 -21z m52 -3 c-3 -3 -9 2 -12 12 -6 14 -5 15 5 6 7
-7 10 -15 7 -18z m-738 5 c20 -6 21 -8 5 -8 -11 0 -31 4 -45 8 -20 6 -21 8 -5
8 11 0 31 -4 45 -8z m568 -10 c-7 -10 -14 -18 -15 -16 -6 6 9 36 18 36 5 0 4
-9 -3 -20z m-708 -4 c8 -2 -31 -4 -88 -5 -57 0 -101 3 -98 7 5 8 148 6 186 -2z
m80 4 c24 -8 24 -8 -5 -9 -16 0 -37 4 -45 9 -12 8 -11 10 5 9 11 -1 31 -5 45
-9z m537 -62 c-3 -8 -6 -5 -6 6 -1 11 2 17 5 13 3 -3 4 -12 1 -19z m63 -25
c-11 -17 -11 -17 -6 0 3 10 7 26 7 35 1 15 2 15 6 0 2 -10 -1 -25 -7 -35z
m878 -40 c5 -10 6 -27 2 -38 -6 -16 -8 -12 -12 18 -5 41 -3 45 10 20z m-51
-40 c-3 -10 -5 -2 -5 17 0 19 2 27 5 18 2 -10 2 -26 0 -35z m-177 -13 c18 -12
2 -12 -25 0 -13 6 -15 9 -5 9 8 0 22 -4 30 -9z m257 -22 c-3 -8 -6 -5 -6 6 -1
11 2 17 5 13 3 -3 4 -12 1 -19z m-737 9 c0 -2 -10 -12 -22 -23 l-23 -19 19 23
c18 21 26 27 26 19z m636 -12 c-11 -8 -34 -14 -50 -14 -29 1 -29 2 7 9 20 4
40 10 44 13 3 4 9 7 12 7 3 0 -3 -7 -13 -15z m60 -14 c-1 -17 -5 -26 -9 -21
-5 4 -6 17 -2 29 9 29 12 26 11 -8z m-670 4 c-10 -8 -15 -19 -10 -26 4 -7 3
-10 -4 -5 -6 3 -14 -3 -17 -15 -4 -11 -9 -18 -12 -16 -7 8 25 64 39 70 22 9
24 7 4 -8z m444 5 c8 -5 11 -10 5 -10 -5 0 -17 5 -25 10 -8 5 -10 10 -5 10 6
0 17 -5 25 -10z m277 -72 c-2 -13 -4 -3 -4 22 0 25 2 35 4 23 2 -13 2 -33 0
-45z m-790 10 c-3 -8 -6 -5 -6 6 -1 11 2 17 5 13 3 -3 4 -12 1 -19z m693 18
c0 -2 3 -13 6 -23 6 -17 6 -17 -7 -1 -8 9 -27 19 -44 21 -27 4 -26 4 8 6 20 0
37 -1 37 -3z m-525 -55 c54 -37 81 -60 55 -46 -26 14 -130 88 -130 92 0 5 13
-3 75 -46z m42 -83 c34 -18 60 -34 58 -36 -9 -10 -129 65 -177 110 l-53 50 55
-46 c30 -26 83 -61 117 -78z m562 61 c0 8 4 11 7 8 7 -7 -14 -37 -25 -37 -4 0
-5 17 -2 38 l5 37 7 -30 c4 -16 7 -24 8 -16z m-62 -11 c-3 -7 -5 -2 -5 12 0
14 2 19 5 13 2 -7 2 -19 0 -25z m-7 -28 c0 -13 -37 -50 -49 -50 -6 0 2 13 17
29 32 34 32 34 32 21z m-410 -10 c8 -5 11 -10 5 -10 -5 0 -17 5 -25 10 -8 5
-10 10 -5 10 6 0 17 -5 25 -10z m460 -32 c0 -6 -3 -8 -7 -5 -3 4 -18 -3 -32
-15 l-26 -23 24 28 c26 29 41 35 41 15z m-353 -4 c-3 -3 -12 -4 -19 -1 -8 3
-5 6 6 6 11 1 17 -2 13 -5z m-932 -46 c32 -33 34 -37 12 -23 -15 10 -33 27
-38 38 -9 16 -13 17 -20 6 -5 -8 -9 -9 -9 -3 0 8 9 24 14 24 1 0 19 -19 41
-42z m988 35 c-7 -2 -19 -2 -25 0 -7 3 -2 5 12 5 14 0 19 -2 13 -5z m174 1
c-3 -3 -12 -4 -19 -1 -8 3 -5 6 6 6 11 1 17 -2 13 -5z m-74 -11 c-7 -2 -21 -2
-30 0 -10 3 -4 5 12 5 17 0 24 -2 18 -5z m167 -49 c-22 -34 -101 -94 -124 -94
-6 0 13 14 41 30 33 19 61 44 75 69 12 22 24 38 26 36 3 -2 -6 -20 -18 -41z
m-267 9 c-7 -2 -19 -2 -25 0 -7 3 -2 5 12 5 14 0 19 -2 13 -5z m174 1 c-3 -3
-12 -4 -19 -1 -8 3 -5 6 6 6 11 1 17 -2 13 -5z m-69 -11 c-10 -2 -28 -2 -40 0
-13 2 -5 4 17 4 22 1 32 -1 23 -4z m-1187 -70 c-12 -20 -14 -14 -5 12 4 9 9
14 11 11 3 -2 0 -13 -6 -23z m23 -60 c-90 -242 -206 -404 -422 -584 -288 -242
-341 -296 -400 -414 -35 -70 -62 -156 -62 -199 0 -24 -3 -27 -10 -16 -25 38
-4 173 40 260 66 130 146 213 423 434 229 183 270 233 386 464 34 67 63 122
66 122 2 0 -7 -30 -21 -67z m-89 -73 c-9 -16 -18 -30 -21 -30 -2 0 2 14 11 30
9 17 18 30 21 30 2 0 -2 -13 -11 -30z m-40 -67 c-76 -120 -155 -203 -318 -335
-216 -176 -316 -266 -367 -334 -57 -77 -67 -87 -44 -45 31 57 189 209 354 341
180 144 267 230 335 329 47 68 76 100 40 44z m772 -205 c-2 -18 -4 -4 -4 32 0
36 2 50 4 33 2 -18 2 -48 0 -65z m-10 -170 c-2 -18 -4 -6 -4 27 0 33 2 48 4
33 2 -15 2 -42 0 -60z m10 -230 c-3 -8 -6 -5 -6 6 -1 11 2 17 5 13 3 -3 4 -12
1 -19z m-210 -151 c-2 -23 -3 -1 -3 48 0 50 1 68 3 42 2 -26 2 -67 0 -90z
m220 91 c-3 -7 -5 -2 -5 12 0 14 2 19 5 13 2 -7 2 -19 0 -25z m10 -50 c-3 -7
-5 -2 -5 12 0 14 2 19 5 13 2 -7 2 -19 0 -25z m-2038 -65 c-1 -41 -2 -44 -8
-18 -7 29 -7 29 -15 7 -4 -13 -10 -21 -12 -19 -5 4 27 77 33 77 2 0 2 -21 2
-47z m2048 15 c-3 -8 -6 -5 -6 6 -1 11 2 17 5 13 3 -3 4 -12 1 -19z m-237
-164 c35 -185 63 -369 58 -392 -2 -9 -10 14 -17 51 -6 38 -23 105 -37 149 -22
68 -41 218 -44 337 -1 41 14 -12 40 -145z m247 114 c-3 -7 -5 -2 -5 12 0 14 2
19 5 13 2 -7 2 -19 0 -25z m-240 -30 c-3 -7 -5 -2 -5 12 0 14 2 19 5 13 2 -7
2 -19 0 -25z m-1719 -143 l37 -40 -38 35 c-37 33 -97 124 -97 145 0 6 14 -15
31 -45 16 -30 47 -73 67 -95z m1967 113 c-3 -18 3 -94 14 -168 11 -74 23 -151
25 -170 3 -19 -5 -1 -19 40 -14 41 -27 111 -30 155 -3 44 -8 100 -10 125 -3
32 -2 41 5 30 8 -13 10 -12 10 3 0 9 2 17 5 17 3 0 3 -15 0 -32z m-1608 0 c-3
-8 -6 -5 -6 6 -1 11 2 17 5 13 3 -3 4 -12 1 -19z m1370 -30 c-3 -7 -5 -2 -5
12 0 14 2 19 5 13 2 -7 2 -19 0 -25z m-1380 -20 c-3 -7 -5 -2 -5 12 0 14 2 19
5 13 2 -7 2 -19 0 -25z m-398 -61 c30 -34 97 -70 111 -62 6 3 10 13 10 21 0
13 4 13 30 -1 35 -18 43 -19 34 -2 -4 7 -3 9 2 4 5 -5 9 -14 9 -19 0 -6 6 -13
14 -16 9 -3 11 0 6 8 -5 9 -4 11 4 6 6 -4 9 -11 6 -16 -3 -4 2 -14 11 -21 23
-19 59 -94 82 -171 25 -85 13 -80 -23 9 -30 76 -82 152 -120 177 -20 13 -29
14 -43 5 -15 -10 -30 -7 -75 14 -44 20 -63 37 -87 73 -16 26 -30 55 -30 63 1
9 8 3 17 -14 8 -16 27 -43 42 -58z m2028 61 c-3 -8 -6 -5 -6 6 -1 11 2 17 5
13 3 -3 4 -12 1 -19z m-240 -30 c-3 -8 -6 -5 -6 6 -1 11 2 17 5 13 3 -3 4 -12
1 -19z m-1664 -24 c14 -17 14 -21 2 -21 -8 0 -12 4 -9 9 3 4 0 8 -5 8 -6 0
-11 8 -11 17 0 9 1 14 3 12 1 -2 10 -13 20 -25z m1914 -6 c-3 -8 -6 -5 -6 6
-1 11 2 17 5 13 3 -3 4 -12 1 -19z m-1650 -100 c-2 -24 -4 -7 -4 37 0 44 2 63
4 43 2 -21 2 -57 0 -80z m1410 70 c-3 -7 -5 -2 -5 12 0 14 2 19 5 13 2 -7 2
-19 0 -25z m250 -40 c-3 -7 -5 -2 -5 12 0 14 2 19 5 13 2 -7 2 -19 0 -25z
m-240 -10 c-3 -8 -6 -5 -6 6 -1 11 2 17 5 13 3 -3 4 -12 1 -19z m-1526 -40
c15 -28 5 -21 -21 15 -15 20 -17 27 -6 18 9 -8 22 -23 27 -33z m829 1 l35 -30
-40 27 c-22 16 -42 29 -44 31 -2 2 0 3 5 3 5 0 25 -14 44 -31z m707 -21 c-3
-7 -5 -2 -5 12 0 14 2 19 5 13 2 -7 2 -19 0 -25z m240 10 c-3 -8 -6 -5 -6 6
-1 11 2 17 5 13 3 -3 4 -12 1 -19z m-963 -38 c36 -41 46 -57 24 -44 -8 5 -9 2
-5 -11 34 -88 33 -200 -2 -275 -12 -25 -19 -34 -15 -20 3 14 8 70 11 125 4 90
2 104 -19 145 -13 25 -39 55 -58 68 -30 20 -44 23 -95 19 -57 -4 -58 -4 -30 9
17 7 51 13 77 14 41 0 54 -5 88 -36 22 -20 40 -32 40 -26 0 5 -16 24 -35 41
-20 17 -32 31 -27 31 6 0 26 -18 46 -40z m-774 -35 c0 -5 -5 -3 -10 5 -5 8
-10 20 -10 25 0 6 5 3 10 -5 5 -8 10 -19 10 -25z m1507 -7 c-3 -7 -5 -2 -5 12
0 14 2 19 5 13 2 -7 2 -19 0 -25z m240 10 c-3 -8 -6 -5 -6 6 -1 11 2 17 5 13
3 -3 4 -12 1 -19z m-1680 -50 c-3 -7 -5 -2 -5 12 0 14 2 19 5 13 2 -7 2 -19 0
-25z m1547 -153 c5 -24 4 -26 -4 -12 -19 30 -30 19 -31 -30 -1 -42 -3 -40 -10
22 -4 39 -10 97 -13 130 l-6 60 28 -70 c16 -38 32 -83 36 -100z m-1597 133
c-3 -8 -6 -5 -6 6 -1 11 2 17 5 13 3 -3 4 -12 1 -19z m1740 -15 c-3 -10 -5 -4
-5 12 0 17 2 24 5 18 2 -7 2 -21 0 -30z m-240 -20 c-3 -10 -5 -2 -5 17 0 19 2
27 5 18 2 -10 2 -26 0 -35z m-1440 -5 c-3 -7 -5 -2 -5 12 0 14 2 19 5 13 2 -7
2 -19 0 -25z m760 0 c-3 -8 -6 -5 -6 6 -1 11 2 17 5 13 3 -3 4 -12 1 -19z
m-787 -43 c0 -5 -5 -3 -10 5 -5 8 -10 20 -10 25 0 6 5 3 10 -5 5 -8 10 -19 10
-25z m1717 -2 c-3 -10 -5 -4 -5 12 0 17 2 24 5 18 2 -7 2 -21 0 -30z m-1680
-15 c-3 -7 -5 -2 -5 12 0 14 2 19 5 13 2 -7 2 -19 0 -25z m1440 -95 c-2 -16
-4 -3 -4 27 0 30 2 43 4 28 2 -16 2 -40 0 -55z m-690 35 c-3 -7 -5 -2 -5 12 0
14 2 19 5 13 2 -7 2 -19 0 -25z m940 -5 c-3 -10 -5 -4 -5 12 0 17 2 24 5 18 2
-7 2 -21 0 -30z m-511 -38 c-37 -31 -96 -70 -96 -63 0 2 27 23 60 47 33 24 60
48 60 54 0 6 3 7 8 3 4 -4 -10 -23 -32 -41z m-1564 -153 c41 -42 88 -71 141
-88 23 -7 33 -13 21 -13 -65 -2 -189 100 -238 197 -38 76 -31 77 9 2 19 -35
50 -79 67 -98z m2135 121 c-3 -10 -5 -4 -5 12 0 17 2 24 5 18 2 -7 2 -21 0
-30z m-47 12 c0 -8 -7 -15 -15 -15 -13 0 -14 3 -3 15 16 18 18 18 18 0z m-979
-22 c-12 -20 -14 -14 -5 12 4 9 9 14 11 11 3 -2 0 -13 -6 -23z m523 -23 c5
-17 4 -20 -2 -10 -5 8 -13 26 -16 40 -5 17 -4 20 2 10 5 -8 13 -26 16 -40z
m313 -27 c-2 -16 -4 -5 -4 22 0 28 2 40 4 28 2 -13 2 -35 0 -50z m-501 12
c-11 -8 -25 -15 -30 -15 -6 1 0 7 14 15 32 19 40 18 16 0z m441 -77 c-2 -18
-4 -6 -4 27 0 33 2 48 4 33 2 -15 2 -42 0 -60z m-797 67 c0 -8 -82 -95 -89
-95 -6 0 78 96 87 99 1 1 2 -1 2 -4z m750 -50 c0 -36 -3 -45 -17 -44 -11 0
-13 3 -5 6 7 2 12 22 12 44 0 21 2 39 5 39 3 0 5 -20 5 -45z m-469 26 c-11 -7
-9 -10 10 -14 13 -2 2 -5 -26 -5 l-50 -1 30 14 c34 15 57 19 36 6z m187 -8
c-15 -2 -42 -2 -60 0 -18 2 -6 4 27 4 33 0 48 -2 33 -4z m609 -25 c-3 -7 -5
-2 -5 12 0 14 2 19 5 13 2 -7 2 -19 0 -25z m-548 8 c7 -9 11 -37 8 -73 l-3
-58 -2 62 c-2 47 -6 64 -19 72 -10 6 -13 11 -7 11 6 0 17 -6 23 -14z m38 -8
c-3 -8 -6 -5 -6 6 -1 11 2 17 5 13 3 -3 4 -12 1 -19z m-1167 -45 c0 -2 -9 1
-20 7 -11 6 -25 8 -30 5 -5 -3 -7 1 -4 9 5 14 9 13 30 -1 13 -8 24 -17 24 -20z
m941 0 c-12 -20 -14 -14 -5 12 4 9 9 14 11 11 3 -2 0 -13 -6 -23z m485 -24
c-9 -19 -15 -29 -16 -22 0 6 -3 20 -6 30 -5 14 -4 15 4 4 9 -12 12 -9 18 14 4
17 9 25 11 19 2 -6 -3 -26 -11 -45z m-549 34 c-20 -2 -52 -2 -70 0 -17 2 0 4
38 4 39 0 53 -2 32 -4z m810 -25 c-3 -7 -5 -2 -5 12 0 14 2 19 5 13 2 -7 2
-19 0 -25z m-969 15 c-10 -2 -26 -2 -35 0 -10 3 -2 5 17 5 19 0 27 -2 18 -5z
m-798 -23 c-14 -11 -29 -20 -35 -20 -5 0 4 9 20 20 38 25 48 25 15 0z m169 4
c10 -9 -55 -3 -69 6 -10 6 -2 7 25 3 22 -3 42 -7 44 -9z m529 9 c-10 -2 -26
-2 -35 0 -10 3 -2 5 17 5 19 0 27 -2 18 -5z m569 -25 c-3 -7 -5 -2 -5 12 0 14
2 19 5 13 2 -7 2 -19 0 -25z m-660 16 c-3 -3 -12 -4 -19 -1 -8 3 -5 6 6 6 11
1 17 -2 13 -5z m1139 -42 c-17 -16 -18 -16 -5 5 7 12 15 20 18 17 3 -2 -3 -12
-13 -22z m-1833 1 c-7 -2 -21 -2 -30 0 -10 3 -4 5 12 5 17 0 24 -2 18 -5z
m1354 -50 c-3 -10 -5 -2 -5 17 0 19 2 27 5 18 2 -10 2 -26 0 -35z m240 15 c-3
-7 -5 -2 -5 12 0 14 2 19 5 13 2 -7 2 -19 0 -25z m80 26 c-3 -3 -12 -4 -19 -1
-8 3 -5 6 6 6 11 1 17 -2 13 -5z m56 -11 c-7 -2 -21 -2 -30 0 -10 3 -4 5 12 5
17 0 24 -2 18 -5z m74 1 c-3 -3 -12 -4 -19 -1 -8 3 -5 6 6 6 11 1 17 -2 13 -5z
m-1550 -36 c-3 -8 -6 -5 -6 6 -1 11 2 17 5 13 3 -3 4 -12 1 -19z m1043 12 c0
-21 -73 -90 -94 -89 -21 2 -21 2 1 6 22 4 83 65 83 83 0 6 2 10 5 10 3 0 5 -4
5 -10z m-900 -71 l105 -5 -101 -2 c-78 -2 -104 1 -120 14 -10 8 -12 12 -4 7 8
-4 62 -11 120 -14z m947 -11 c-3 -7 -5 -2 -5 12 0 14 2 19 5 13 2 -7 2 -19 0
-25z m239 4 c-17 -16 -18 -16 -5 5 7 12 15 20 18 17 3 -2 -3 -12 -13 -22z
m-808 11 c-42 -2 -114 -2 -160 0 -46 1 -11 3 77 3 88 0 125 -2 83 -3z m290
-10 c-27 -2 -69 -2 -95 0 -27 2 -5 3 47 3 52 0 74 -1 48 -3z m430 -30 c-21 -2
-55 -2 -75 0 -21 2 -4 4 37 4 41 0 58 -2 38 -4z"/>
<path d="M2160 3366 c0 -2 8 -10 18 -17 15 -13 16 -12 3 4 -13 16 -21 21 -21
13z"/>
<path d="M3651 1404 c0 -11 3 -14 6 -6 3 7 2 16 -1 19 -3 4 -6 -2 -5 -13z"/>
</g>
</svg>
